<?xml version="1.0" encoding="UTF-8" standalone="no"?>
<svg width="300" height="170" viewBox="0 60 300 170" xmlns="http://www.w3.org/2000/svg">
    <style type="text/css" >
        <![CDATA[

        * {
           stroke:url(#gradient-light);
           stroke-width: 3;
           stroke-linecap: round;
           fill: none;
        }

        .red {stroke: red;}

        ]]>
    </style>

    <defs>
        <linearGradient id="gradient-light" x1="10%" y1="10%" x2="90%" y2="90%" gradientUnits="userSpaceOnUse">
            <stop stop-color="#00acc1" offset="0%"/>
            <stop stop-color="#1e88e5" offset="50%"/>
            <stop stop-color="#5e35b1" offset="100%" />
        </linearGradient>
        <linearGradient id="gradient-dark" x1="10%" y1="10%" x2="90%" y2="90%" gradientUnits="userSpaceOnUse">
            <stop stop-color="#26c6da" offset="0%"/>
            <stop stop-color="#42a5f5" offset="50%"/>
            <stop stop-color="#7e57c2" offset="100%" />
        </linearGradient>
    </defs>

    <rect x="0" y="60" width="300" height="170" style="stroke:#000; stroke-width:1; fill:#222; display:none;" />

    <!-- Zarysy dysków -->
    <path
        d=" M 40 110
            v -25
            a 15 15 0 0 1 15 -15
            h 190
            a 15 15 0 0 1 15 15
            v 25
            h -60
            m -100 0
            h -60
            v -5" />
    <rect x="50" y="100" width="1" height="1" />
    <rect x="60" y="100" width="1" height="1" />
    <rect x="70" y="100" width="1" height="1" />

    <path
        d=" M 40 190
            l 0 -25
            a 15 15 0 0 1 15 -15
            l 45 0
            m 100 0
            l 45 0
            a 15 15 0 0 1 15 15
            l 0 25
            l -30 0
            m -30 0
            l -160 0
            v -5" />
    <rect x="50" y="180" width="1" height="1" />
    <rect x="60" y="180" width="1" height="1" />
    <rect x="70" y="180" width="1" height="1" />
    
    <!-- Lupa -->
    <circle cx="150" cy="125" r="40" />
    <line x1="178.28" y1="153.28" x2="240.28" y2="215.28" />

    <!-- Krzyżyk -->
    <line x1="130" y1="105" x2="170" y2="145" class="red" />
    <line x1="130" y1="145" x2="170" y2="105" class="red" />
</svg>